<svg preserveAspectRatio="none" width="100%" height="100%" overflow="visible" style="display: block;" viewBox="0 0 768.219 767.667" fill="none" xmlns="http://www.w3.org/2000/svg">
<g id="Union">
<path d="M715.886 0.820573C744.399 1.18152 767.402 24.4083 767.403 53.0071V150.79C767.403 179.389 744.4 202.616 715.886 202.977L715.212 202.982H586.265C583.868 202.982 582.266 205.495 582.968 207.787C583.989 211.117 584.538 214.654 584.538 218.319V345.442C584.538 365.287 568.45 381.375 548.605 381.375H348.717C346.913 381.375 345.45 382.838 345.45 384.642V730.917C345.45 750.763 329.362 766.851 309.517 766.851H36.7503C16.9049 766.851 0.816756 750.763 0.816667 730.917V218.319C0.816667 198.473 16.9048 182.385 36.7503 182.385H164.698C166.503 182.385 167.965 180.922 167.965 179.118V53.0081C167.965 24.1843 191.332 0.817072 220.156 0.816667H715.212L715.886 0.820573ZM220.156 39.9602C212.95 39.9606 207.109 45.8024 207.109 53.0081V160.571C207.109 162.376 208.571 163.838 210.375 163.838H715.212C722.418 163.838 728.26 157.996 728.26 150.79V53.0071C728.26 45.8016 722.418 39.9604 715.212 39.9602H220.156Z" fill="var(--fill-0, #1C1C1C)"/>
<path d="M715.886 0.820573L715.896 0.00395244L715.891 0.00391996L715.886 0.820573ZM767.403 53.0071H768.219V53.0071L767.403 53.0071ZM715.886 202.977L715.892 203.793L715.896 203.793L715.886 202.977ZM715.212 202.982V203.798L715.218 203.798L715.212 202.982ZM584.538 345.442H585.355V345.442H584.538ZM548.605 381.375V382.192V382.192V381.375ZM345.45 730.917H346.267V730.917H345.45ZM309.517 766.851V767.667V767.667V766.851ZM0.816667 730.917H0V730.917H0.816667ZM167.965 53.0081L167.148 53.0081V53.0081H167.965ZM220.156 0.816667V0H220.156L220.156 0.816667ZM715.212 0.816667L715.217 0H715.212V0.816667ZM220.156 39.9602V39.1436H220.155L220.156 39.9602ZM207.109 53.0081L206.292 53.008V53.0081H207.109ZM715.212 163.838V164.655V164.655V163.838ZM728.26 53.0071H729.077V53.007L728.26 53.0071ZM715.212 39.9602V39.1436V39.1436V39.9602ZM582.968 207.787L583.749 207.548L582.968 207.787ZM715.886 0.820573L715.876 1.63717C743.943 1.99247 766.585 24.8559 766.586 53.0071L767.403 53.0071L768.219 53.0071C768.219 23.9608 744.856 0.370568 715.896 0.0039717L715.886 0.820573ZM767.403 53.0071H766.586V150.79H767.403H768.219V53.0071H767.403ZM767.403 150.79H766.586C766.586 178.942 743.943 201.805 715.876 202.16L715.886 202.977L715.896 203.793C744.856 203.427 768.219 179.837 768.219 150.79H767.403ZM715.886 202.977L715.88 202.16L715.206 202.165L715.212 202.982L715.218 203.798L715.892 203.793L715.886 202.977ZM715.212 202.982V202.165H586.265V202.982V203.798H715.212V202.982ZM582.968 207.787L582.188 208.026C583.184 211.28 583.722 214.736 583.722 218.319H584.538H585.355C585.355 214.572 584.793 210.955 583.749 207.548L582.968 207.787ZM584.538 218.319H583.722V345.442H584.538H585.355V218.319H584.538ZM584.538 345.442H583.722C583.722 364.836 567.999 380.559 548.605 380.559V381.375V382.192C568.901 382.192 585.355 365.738 585.355 345.442H584.538ZM548.605 381.375V380.559H348.717V381.375V382.192H548.605V381.375ZM345.45 384.642H344.634V730.917H345.45H346.267V384.642H345.45ZM345.45 730.917H344.634C344.634 750.312 328.911 766.034 309.517 766.034V766.851V767.667C329.813 767.667 346.267 751.214 346.267 730.917H345.45ZM309.517 766.851V766.034H36.7503V766.851V767.667H309.517V766.851ZM36.7503 766.851V766.034C17.3559 766.034 1.63342 750.312 1.63333 730.917H0.816667H0C9.16123e-05 751.214 16.4538 767.667 36.7503 767.667V766.851ZM0.816667 730.917H1.63333V218.319H0.816667H0V730.917H0.816667ZM0.816667 218.319H1.63333C1.63333 198.924 17.3559 183.202 36.7503 183.202V182.385V181.568C16.4538 181.568 0 198.022 0 218.319H0.816667ZM36.7503 182.385V183.202H164.698V182.385V181.568H36.7503V182.385ZM167.965 179.118H168.782V53.0081H167.965H167.148V179.118H167.965ZM167.965 53.0081L168.782 53.0081C168.782 24.6353 191.783 1.63373 220.156 1.63333L220.156 0.816667L220.156 0C190.881 0.00041157 167.149 23.7333 167.148 53.0081L167.965 53.0081ZM220.156 0.816667V1.63333H715.212V0.816667V0H220.156V0.816667ZM715.212 0.816667L715.207 1.63332L715.881 1.63723L715.886 0.820573L715.891 0.00391996L715.217 1.37091e-05L715.212 0.816667ZM220.156 39.9602L220.155 39.1436C212.499 39.144 206.292 45.3514 206.292 53.008L207.109 53.0081L207.925 53.0081C207.926 46.2534 213.401 40.7773 220.156 40.7769L220.156 39.9602ZM207.109 53.0081H206.292V160.571H207.109H207.925V53.0081H207.109ZM210.375 163.838V164.655H715.212V163.838V163.021H210.375V163.838ZM715.212 163.838V164.655C722.869 164.655 729.077 158.447 729.077 150.79H728.26H727.443C727.443 157.545 721.967 163.021 715.212 163.021V163.838ZM728.26 150.79H729.077V53.0071H728.26H727.443V150.79H728.26ZM728.26 53.0071L729.077 53.007C729.076 45.3505 722.869 39.1437 715.212 39.1436V39.9602V40.7769C721.967 40.7771 727.443 46.2527 727.443 53.0072L728.26 53.0071ZM715.212 39.9602V39.1436H220.156V39.9602V40.7769H715.212V39.9602ZM207.109 160.571H206.292C206.292 162.827 208.12 164.655 210.375 164.655V163.838V163.021C209.022 163.021 207.925 161.925 207.925 160.571H207.109ZM164.698 182.385V183.202C166.954 183.202 168.782 181.374 168.782 179.118H167.965H167.148C167.148 180.471 166.052 181.568 164.698 181.568V182.385ZM348.717 381.375V380.559C346.462 380.559 344.634 382.387 344.634 384.642H345.45H346.267C346.267 383.289 347.364 382.192 348.717 382.192V381.375ZM586.265 202.982V202.165C583.235 202.165 581.35 205.293 582.188 208.026L582.968 207.787L583.749 207.548C583.182 205.697 584.502 203.798 586.265 203.798V202.982Z" fill="var(--stroke-0, #323232)" fill-opacity="0.4"/>
</g>
</svg>
